<svg xmlns="http://www.w3.org/2000/svg" xmlns:xlink="http://www.w3.org/1999/xlink" viewBox="0 0 1280 720" width="1280" height="720"><defs><filter id="desat"><feColorMatrix type="saturate" values="0.88"/></filter></defs><rect x="0" y="0" width="1280" height="720" fill="#1A1A1A"/><image xlink:href="../images_v3/real_cover.jpg" x="0" y="0" width="1280" height="720" preserveAspectRatio="xMidYMid slice" filter="url(#desat)" opacity="0.12"/><text x="96" y="56" font-family="Noto Sans CJK SC" font-size="13" fill="#F5EFE6" font-weight="500" letter-spacing="2.9">RUNWAY</text><line x1="96" y1="78" x2="136" y2="78" stroke="#7A1F2B" stroke-width="1"/><text x="96" y="150" font-family="Noto Serif CJK SC" font-size="56" fill="#F5EFE6" font-weight="900" letter-spacing="0.6">大牌本季做了什么</text><text x="96" y="186" font-family="Noto Sans CJK SC" font-size="17" fill="#F5EFE6" opacity="0.7">四大时装周秀场实录</text><rect x="96" y="206" width="1088" height="18" fill="#F5EFE6" opacity="0.14"/><rect x="108" y="211" width="10" height="8" fill="#1A1A1A" opacity="0.85"/><rect x="142" y="211" width="10" height="8" fill="#1A1A1A" opacity="0.85"/><rect x="176" y="211" width="10" height="8" fill="#1A1A1A" opacity="0.85"/><rect x="210" y="211" width="10" height="8" fill="#1A1A1A" opacity="0.85"/><rect x="244" y="211" width="10" height="8" fill="#1A1A1A" opacity="0.85"/><rect x="278" y="211" width="10" height="8" fill="#1A1A1A" opacity="0.85"/><rect x="312" y="211" width="10" height="8" fill="#1A1A1A" opacity="0.85"/><rect x="346" y="211" width="10" height="8" fill="#1A1A1A" opacity="0.85"/><rect x="380" y="211" width="10" height="8" fill="#1A1A1A" opacity="0.85"/><rect x="414" y="211" width="10" height="8" fill="#1A1A1A" opacity="0.85"/><rect x="448" y="211" width="10" height="8" fill="#1A1A1A" opacity="0.85"/><rect x="482" y="211" width="10" height="8" fill="#1A1A1A" opacity="0.85"/><rect x="516" y="211" width="10" height="8" fill="#1A1A1A" opacity="0.85"/><rect x="550" y="211" width="10" height="8" fill="#1A1A1A" opacity="0.85"/><rect x="584" y="211" width="10" height="8" fill="#1A1A1A" opacity="0.85"/><rect x="618" y="211" width="10" height="8" fill="#1A1A1A" opacity="0.85"/><rect x="652" y="211" width="10" height="8" fill="#1A1A1A" opacity="0.85"/><rect x="686" y="211" width="10" height="8" fill="#1A1A1A" opacity="0.85"/><rect x="720" y="211" width="10" height="8" fill="#1A1A1A" opacity="0.85"/><rect x="754" y="211" width="10" height="8" fill="#1A1A1A" opacity="0.85"/><rect x="788" y="211" width="10" height="8" fill="#1A1A1A" opacity="0.85"/><rect x="822" y="211" width="10" height="8" fill="#1A1A1A" opacity="0.85"/><rect x="856" y="211" width="10" height="8" fill="#1A1A1A" opacity="0.85"/><rect x="890" y="211" width="10" height="8" fill="#1A1A1A" opacity="0.85"/><rect x="924" y="211" width="10" height="8" fill="#1A1A1A" opacity="0.85"/><rect x="958" y="211" width="10" height="8" fill="#1A1A1A" opacity="0.85"/><rect x="992" y="211" width="10" height="8" fill="#1A1A1A" opacity="0.85"/><rect x="1026" y="211" width="10" height="8" fill="#1A1A1A" opacity="0.85"/><rect x="1060" y="211" width="10" height="8" fill="#1A1A1A" opacity="0.85"/><rect x="1094" y="211" width="10" height="8" fill="#1A1A1A" opacity="0.85"/><rect x="1128" y="211" width="10" height="8" fill="#1A1A1A" opacity="0.85"/><rect x="96" y="534" width="1088" height="18" fill="#F5EFE6" opacity="0.14"/><rect x="108" y="539" width="10" height="8" fill="#1A1A1A" opacity="0.85"/><rect x="142" y="539" width="10" height="8" fill="#1A1A1A" opacity="0.85"/><rect x="176" y="539" width="10" height="8" fill="#1A1A1A" opacity="0.85"/><rect x="210" y="539" width="10" height="8" fill="#1A1A1A" opacity="0.85"/><rect x="244" y="539" width="10" height="8" fill="#1A1A1A" opacity="0.85"/><rect x="278" y="539" width="10" height="8" fill="#1A1A1A" opacity="0.85"/><rect x="312" y="539" width="10" height="8" fill="#1A1A1A" opacity="0.85"/><rect x="346" y="539" width="10" height="8" fill="#1A1A1A" opacity="0.85"/><rect x="380" y="539" width="10" height="8" fill="#1A1A1A" opacity="0.85"/><rect x="414" y="539" width="10" height="8" fill="#1A1A1A" opacity="0.85"/><rect x="448" y="539" width="10" height="8" fill="#1A1A1A" opacity="0.85"/><rect x="482" y="539" width="10" height="8" fill="#1A1A1A" opacity="0.85"/><rect x="516" y="539" width="10" height="8" fill="#1A1A1A" opacity="0.85"/><rect x="550" y="539" width="10" height="8" fill="#1A1A1A" opacity="0.85"/><rect x="584" y="539" width="10" height="8" fill="#1A1A1A" opacity="0.85"/><rect x="618" y="539" width="10" height="8" fill="#1A1A1A" opacity="0.85"/><rect x="652" y="539" width="10" height="8" fill="#1A1A1A" opacity="0.85"/><rect x="686" y="539" width="10" height="8" fill="#1A1A1A" opacity="0.85"/><rect x="720" y="539" width="10" height="8" fill="#1A1A1A" opacity="0.85"/><rect x="754" y="539" width="10" height="8" fill="#1A1A1A" opacity="0.85"/><rect x="788" y="539" width="10" height="8" fill="#1A1A1A" opacity="0.85"/><rect x="822" y="539" width="10" height="8" fill="#1A1A1A" opacity="0.85"/><rect x="856" y="539" width="10" height="8" fill="#1A1A1A" opacity="0.85"/><rect x="890" y="539" width="10" height="8" fill="#1A1A1A" opacity="0.85"/><rect x="924" y="539" width="10" height="8" fill="#1A1A1A" opacity="0.85"/><rect x="958" y="539" width="10" height="8" fill="#1A1A1A" opacity="0.85"/><rect x="992" y="539" width="10" height="8" fill="#1A1A1A" opacity="0.85"/><rect x="1026" y="539" width="10" height="8" fill="#1A1A1A" opacity="0.85"/><rect x="1060" y="539" width="10" height="8" fill="#1A1A1A" opacity="0.85"/><rect x="1094" y="539" width="10" height="8" fill="#1A1A1A" opacity="0.85"/><rect x="1128" y="539" width="10" height="8" fill="#1A1A1A" opacity="0.85"/><image xlink:href="../images_v3/real_runway1.jpg" x="96" y="230" width="254" height="300" preserveAspectRatio="xMidYMid slice" filter="url(#desat)"/><text x="223" y="584" font-family="Noto Sans CJK SC" font-size="13" fill="#F5EFE6" font-weight="500" letter-spacing="2.3" text-anchor="middle" opacity="0.85">SAINT LAURENT / 2026 FW / PEXELS</text><image xlink:href="../images_v3/real_runway2.jpg" x="374" y="230" width="254" height="300" preserveAspectRatio="xMidYMid slice" filter="url(#desat)"/><text x="501" y="584" font-family="Noto Sans CJK SC" font-size="13" fill="#F5EFE6" font-weight="500" letter-spacing="2.3" text-anchor="middle" opacity="0.85">DIOR / 2026 FW / PEXELS</text><image xlink:href="../images_v3/real_runway3.jpg" x="652" y="230" width="254" height="300" preserveAspectRatio="xMidYMid slice" filter="url(#desat)"/><text x="779" y="584" font-family="Noto Sans CJK SC" font-size="13" fill="#F5EFE6" font-weight="500" letter-spacing="2.3" text-anchor="middle" opacity="0.85">HERMÈS / 2026 FW / PEXELS</text><image xlink:href="../images_v3/ai_runway4.jpg" x="930" y="230" width="254" height="300" preserveAspectRatio="xMidYMid slice" filter="url(#desat)"/><text x="1057" y="584" font-family="Noto Sans CJK SC" font-size="13" fill="#F5EFE6" font-weight="500" letter-spacing="2.3" text-anchor="middle" opacity="0.85">GUCCI / AGNES 生成</text><text x="1200" y="700" font-family="Bodoni Moda" font-size="150" fill="#F5EFE6" opacity="0.1" text-anchor="end" data-decorative="true">08</text><text x="96" y="690" font-family="Noto Sans CJK SC" font-size="13" fill="#F5EFE6" font-weight="500" letter-spacing="2.1" opacity="0.8">FW26 TREND REPORT · PARIS — MILAN — NEW YORK</text><text x="1184" y="690" font-family="Bodoni Moda" font-size="13" fill="#F5EFE6" font-weight="500" letter-spacing="1.0" text-anchor="end" opacity="0.8">2026</text></svg>