<svg data-pptx-page-role="content" xmlns="http://www.w3.org/2000/svg" viewBox="0 0 1280 720" width="1280" height="720" font-family="&quot;Microsoft YaHei&quot;, &quot;PingFang SC&quot;, Arial, sans-serif">
  <defs>
    <linearGradient id="bus-scrim-x" x1="0" y1="0" x2="1" y2="0">
      <stop offset="0" stop-color="#08090C" stop-opacity="0.92" />
      <stop offset="0.45" stop-color="#08090C" stop-opacity="0.80" />
      <stop offset="0.62" stop-color="#08090C" stop-opacity="0.30" />
      <stop offset="1" stop-color="#08090C" stop-opacity="0.04" />
    </linearGradient>
    <linearGradient id="bus-scrim-y" x1="0" y1="0" x2="0" y2="1">
      <stop offset="0" stop-color="#08090C" stop-opacity="0.12" />
      <stop offset="0.45" stop-color="#08090C" stop-opacity="0" />
      <stop offset="1" stop-color="#08090C" stop-opacity="0.68" />
    </linearGradient>
  </defs>

  <g id="background" data-pptx-bounds="0 0 1280 720" data-pptx-role="background">
    <rect width="1280" height="720" fill="#08090C" />
    <image href="../images/bus_bg.png" x="0" y="0" width="1280" height="720" preserveAspectRatio="xMidYMid slice" />
    <rect width="1280" height="720" fill="url(#bus-scrim-x)" />
    <rect width="1280" height="720" fill="url(#bus-scrim-y)" />
  </g>

  <g id="page-kicker" data-pptx-bounds="78 87 211.9 18.3">
    <text x="80" y="100" font-size="11" fill="#8E8F9A" letter-spacing="4">CAPABILITY TWO · 05</text>
  </g>

  <g id="capability-icon" data-pptx-bounds="69.5 139.5 41.4 48.2">
    <g transform="translate(80 150) scale(1.7)" fill="none" stroke="#6E7BFF" stroke-width="2" stroke-linecap="round" stroke-linejoin="round">
      <path d="M7 12l5 5l-1.5 1.5a3.536 3.536 0 1 1 -5 -5l1.5 -1.5" />
      <path d="M17 12l-5 -5l1.5 -1.5a3.536 3.536 0 1 1 5 5l1.5 1.5" />
      <path d="M3 21l2.5 -2.5" />
    </g>
  </g>

  <g id="capability-text" data-pptx-bounds="77.5 200 538.7 231.9">
    <text x="80" y="258" font-size="56" font-weight="bold" fill="#F7F7F9">你现有的工具照旧用</text>
    <line x1="80" y1="296" x2="200" y2="296" stroke="#23242E" stroke-width="1" />
    <text x="80" y="344" font-size="16" fill="#8E8F9A">不用为了上智能体先做一轮系统改造。</text>
    <text x="80" y="390" font-size="20" fill="#6E7BFF">它学会用你的工具，而不是让你换工具。</text>
    <text x="80" y="426" font-size="13" fill="#8E8F9A">统一语义总线 · 一次接入，所有智能体共享</text>
  </g>

  <g id="connector-chips" data-pptx-bounds="78 450 484 142">
    <rect x="80" y="452" width="230" height="42" rx="6" fill="#12131A" fill-opacity="0.66" stroke="#23242E" stroke-width="1" />
    <text x="104" y="479" font-size="16" fill="#F7F7F9">命令行 CLI</text>

    <rect x="330" y="452" width="230" height="42" rx="6" fill="#12131A" fill-opacity="0.66" stroke="#23242E" stroke-width="1" />
    <text x="354" y="479" font-size="16" fill="#F7F7F9">内部 REST API</text>

    <rect x="80" y="500" width="230" height="42" rx="6" fill="#12131A" fill-opacity="0.66" stroke="#23242E" stroke-width="1" />
    <text x="104" y="527" font-size="16" fill="#F7F7F9">本地文件与表格</text>

    <rect x="330" y="500" width="230" height="42" rx="6" fill="#12131A" fill-opacity="0.66" stroke="#23242E" stroke-width="1" />
    <text x="354" y="527" font-size="16" fill="#F7F7F9">MCP 服务</text>

    <rect x="80" y="548" width="230" height="42" rx="6" fill="#12131A" fill-opacity="0.66" stroke="#23242E" stroke-width="1" />
    <text x="104" y="575" font-size="16" fill="#F7F7F9">数据库与仓库</text>

    <rect x="330" y="548" width="230" height="42" rx="6" fill="#12131A" fill-opacity="0.66" stroke="#23242E" stroke-width="1" />
    <text x="354" y="575" font-size="16" fill="#F7F7F9">浏览器与桌面</text>
  </g>

  <g id="badge" data-pptx-bounds="1111.4 172 73.3 75.9">
    <circle cx="1148" cy="196" r="22" fill="#6E7BFF" />
    <text x="1148" y="204" text-anchor="middle" font-family="Arial, Helvetica, sans-serif" font-size="20" font-weight="bold" fill="#08090C">6</text>
    <text x="1148" y="242" text-anchor="middle" font-size="13" fill="#8E8F9A">类接入方式</text>
  </g>

  <g id="footer" data-pptx-bounds="77.5 605.5 1125 48.4">
    <line x1="80" y1="608" x2="1200" y2="608" stroke="#23242E" stroke-width="1" />
    <text x="1200" y="648" text-anchor="end" font-size="13" fill="#7F8090">05 / 07</text>
  </g>
</svg>
